<svg width="670" height="136" viewBox="0 0 670 136" fill="none" xmlns="http://www.w3.org/2000/svg">
<rect width="200" height="124" rx="30" transform="matrix(1 0 0 -1 470 136)" fill="url(#paint0_linear_11_12)"/>
<path d="M64.3636 30.9091H86.5455V95.2727C86.5152 101.303 85.0758 106.576 82.2273 111.091C79.3788 115.576 75.4394 119.061 70.4091 121.545C65.4091 124.03 59.6212 125.273 53.0455 125.273C47.2273 125.273 41.9394 124.258 37.1818 122.227C32.4545 120.197 28.6818 117.045 25.8636 112.773C23.0758 108.5 21.697 103.03 21.7273 96.3636H44.1364C44.2273 98.7576 44.6818 100.803 45.5 102.5C46.3485 104.167 47.5152 105.424 49 106.273C50.4848 107.121 52.2576 107.545 54.3182 107.545C56.4697 107.545 58.2879 107.091 59.7727 106.182C61.2576 105.242 62.3788 103.864 63.1364 102.045C63.9242 100.227 64.3333 97.9697 64.3636 95.2727V30.9091ZM156.989 30.9091H179.443V90.9545C179.443 97.8939 177.792 103.939 174.489 109.091C171.186 114.212 166.58 118.182 160.67 121C154.761 123.788 147.898 125.182 140.08 125.182C132.17 125.182 125.261 123.788 119.352 121C113.443 118.182 108.852 114.212 105.58 109.091C102.307 103.939 100.67 97.8939 100.67 90.9545V30.9091H123.17V89C123.17 92.2121 123.867 95.0758 125.261 97.5909C126.686 100.106 128.67 102.076 131.216 103.5C133.761 104.924 136.716 105.636 140.08 105.636C143.443 105.636 146.383 104.924 148.898 103.5C151.443 102.076 153.428 100.106 154.852 97.5909C156.277 95.0758 156.989 92.2121 156.989 89V30.9091ZM190.5 49.1818V30.9091H269.182V49.1818H240.955V124H218.773V49.1818H190.5ZM330.489 58.8182C330.186 55.4848 328.837 52.8939 326.443 51.0455C324.08 49.1667 320.701 48.2273 316.307 48.2273C313.398 48.2273 310.973 48.6061 309.034 49.3636C307.095 50.1212 305.64 51.1667 304.67 52.5C303.701 53.803 303.201 55.303 303.17 57C303.11 58.3939 303.383 59.6212 303.989 60.6818C304.625 61.7424 305.534 62.6818 306.716 63.5C307.928 64.2879 309.383 64.9848 311.08 65.5909C312.777 66.197 314.686 66.7273 316.807 67.1818L324.807 69C329.413 70 333.473 71.3333 336.989 73C340.534 74.6667 343.504 76.6515 345.898 78.9545C348.322 81.2576 350.155 83.9091 351.398 86.9091C352.64 89.9091 353.277 93.2727 353.307 97C353.277 102.879 351.792 107.924 348.852 112.136C345.913 116.348 341.686 119.576 336.17 121.818C330.686 124.061 324.064 125.182 316.307 125.182C308.519 125.182 301.731 124.015 295.943 121.682C290.155 119.348 285.655 115.803 282.443 111.045C279.231 106.288 277.58 100.273 277.489 93H299.034C299.216 96 300.019 98.5 301.443 100.5C302.867 102.5 304.822 104.015 307.307 105.045C309.822 106.076 312.731 106.591 316.034 106.591C319.064 106.591 321.64 106.182 323.761 105.364C325.913 104.545 327.564 103.409 328.716 101.955C329.867 100.5 330.458 98.8333 330.489 96.9545C330.458 95.197 329.913 93.697 328.852 92.4545C327.792 91.1818 326.155 90.0909 323.943 89.1818C321.761 88.2424 318.973 87.3788 315.58 86.5909L305.852 84.3182C297.792 82.4697 291.443 79.4848 286.807 75.3636C282.17 71.2121 279.867 65.6061 279.898 58.5455C279.867 52.7879 281.413 47.7424 284.534 43.4091C287.655 39.0758 291.973 35.697 297.489 33.2727C303.004 30.8485 309.292 29.6364 316.352 29.6364C323.564 29.6364 329.822 30.8636 335.125 33.3182C340.458 35.7424 344.595 39.1515 347.534 43.5455C350.473 47.9394 351.973 53.0303 352.034 58.8182H330.489ZM420.989 30.9091H443.443V90.9545C443.443 97.8939 441.792 103.939 438.489 109.091C435.186 114.212 430.58 118.182 424.67 121C418.761 123.788 411.898 125.182 404.08 125.182C396.17 125.182 389.261 123.788 383.352 121C377.443 118.182 372.852 114.212 369.58 109.091C366.307 103.939 364.67 97.8939 364.67 90.9545V30.9091H387.17V89C387.17 92.2121 387.867 95.0758 389.261 97.5909C390.686 100.106 392.67 102.076 395.216 103.5C397.761 104.924 400.716 105.636 404.08 105.636C407.443 105.636 410.383 104.924 412.898 103.5C415.443 102.076 417.428 100.106 418.852 97.5909C420.277 95.0758 420.989 92.2121 420.989 89V30.9091Z" fill="white"/>
<path d="M517.773 92.6591C516.136 92.6591 514.735 92.0833 513.568 90.9318C512.417 89.7803 511.848 88.3864 511.864 86.75C511.848 85.1439 512.417 83.7727 513.568 82.6364C514.735 81.4848 516.136 80.9091 517.773 80.9091C519.318 80.9091 520.682 81.4848 521.864 82.6364C523.061 83.7727 523.667 85.1439 523.682 86.75C523.667 87.8409 523.379 88.8333 522.818 89.7273C522.273 90.6212 521.553 91.3333 520.659 91.8636C519.78 92.3939 518.818 92.6591 517.773 92.6591ZM542.136 72.0909V92H531.023V57.0909H541.591V63.5H541.977C542.75 61.3636 544.068 59.6894 545.932 58.4773C547.795 57.25 550.015 56.6364 552.591 56.6364C555.045 56.6364 557.174 57.1894 558.977 58.2955C560.795 59.3864 562.205 60.9167 563.205 62.8864C564.22 64.8409 564.72 67.1288 564.705 69.75V92H553.591V71.9318C553.606 69.9924 553.114 68.4773 552.114 67.3864C551.129 66.2955 549.758 65.75 548 65.75C546.833 65.75 545.803 66.0076 544.909 66.5227C544.03 67.0227 543.348 67.7424 542.864 68.6818C542.394 69.6212 542.152 70.7576 542.136 72.0909ZM587.903 92.6591C584.252 92.6591 581.1 91.9394 578.449 90.5C575.813 89.0455 573.782 86.9773 572.358 84.2955C570.949 81.5985 570.244 78.3939 570.244 74.6818C570.244 71.0758 570.956 67.9242 572.381 65.2273C573.805 62.5152 575.812 60.4091 578.403 58.9091C580.994 57.3939 584.047 56.6364 587.562 56.6364C590.047 56.6364 592.32 57.0227 594.381 57.7955C596.441 58.5682 598.222 59.7121 599.722 61.2273C601.222 62.7424 602.388 64.6136 603.222 66.8409C604.055 69.053 604.472 71.5909 604.472 74.4545V77.2273H574.131V70.7727H594.131C594.116 69.5909 593.835 68.5379 593.29 67.6136C592.744 66.6894 591.994 65.9697 591.04 65.4545C590.1 64.9242 589.017 64.6591 587.79 64.6591C586.547 64.6591 585.434 64.9394 584.449 65.5C583.464 66.0455 582.684 66.7955 582.108 67.75C581.532 68.6894 581.229 69.7576 581.199 70.9545V77.5227C581.199 78.947 581.479 80.197 582.04 81.2727C582.6 82.3333 583.396 83.1591 584.426 83.75C585.456 84.3409 586.684 84.6364 588.108 84.6364C589.093 84.6364 589.987 84.5 590.79 84.2273C591.593 83.9545 592.282 83.553 592.858 83.0227C593.434 82.4924 593.866 81.8409 594.153 81.0682L604.358 81.3636C603.934 83.6515 603.002 85.6439 601.562 87.3409C600.138 89.0227 598.267 90.3333 595.949 91.2727C593.631 92.197 590.949 92.6591 587.903 92.6591ZM629.852 57.0909V65.2727H607.83V57.0909H629.852ZM612.443 48.7273H623.557V81.0227C623.557 81.7045 623.663 82.2576 623.875 82.6818C624.102 83.0909 624.428 83.3864 624.852 83.5682C625.277 83.7348 625.784 83.8182 626.375 83.8182C626.799 83.8182 627.246 83.7803 627.716 83.7045C628.201 83.6136 628.564 83.5379 628.807 83.4773L630.489 91.5C629.958 91.6515 629.208 91.8409 628.239 92.0682C627.284 92.2955 626.14 92.4394 624.807 92.5C622.201 92.6212 619.966 92.3182 618.102 91.5909C616.254 90.8485 614.837 89.697 613.852 88.1364C612.883 86.5758 612.413 84.6136 612.443 82.25V48.7273Z" fill="white"/>
<defs>
<linearGradient id="paint0_linear_11_12" x1="0" y1="62" x2="200" y2="62" gradientUnits="userSpaceOnUse">
<stop stop-color="#FF30AC"/>
<stop offset="1" stop-color="#C882FF"/>
</linearGradient>
</defs>
</svg>
